<?xml version="1.0" encoding="UTF-8"?>
<svg viewBox="0 0 24 24" version="1.1" xmlns="http://www.w3.org/2000/svg" xmlns:xlink="http://www.w3.org/1999/xlink">
    <title>ic_cancel</title>
    <defs>
        <path opacity=".6" d="M14.123,12.708 L19.2032418,17.7890282 L19.2409924,17.8288715 C19.5933321,18.2214939 19.5807486,18.8257349 19.2032418,19.2032418 C18.8427578,19.5637257 18.2755267,19.5914553 17.8832355,19.2864304 L17.7890282,19.2032418 L12.708,14.123 L14.123,12.708 Z M6.11289944,4.70970461 L6.20710678,4.79289322 L11.998,10.583 L17.7890282,4.79289322 C18.1795525,4.40236893 18.8127175,4.40236893 19.2032418,4.79289322 C19.5807486,5.17040003 19.5933321,5.77464109 19.2409924,6.16726352 L19.2032418,6.20710678 L13.413,11.997 L13.416,12.001 L12.001,13.416 L11.998,13.412 L6.20710678,19.2032418 C5.81658249,19.5937661 5.18341751,19.5937661 4.79289322,19.2032418 C4.4153864,18.8257349 4.40280284,18.2214939 4.75514254,17.8288715 L4.79289322,17.7890282 L10.583,11.998 L4.79289322,6.20710678 L4.75514254,6.16726352 C4.40280284,5.77464109 4.4153864,5.17040003 4.79289322,4.79289322 C5.15337718,4.43240926 5.72060824,4.40467972 6.11289944,4.70970461 Z" id="path-1"></path>
    </defs>
    <g id="ic_cancel" stroke="none" stroke-width="1" fill="none" fill-rule="evenodd">
        <mask id="mask-2" fill="white">
            <use xlink:href="#path-1"></use>
        </mask>
        <use id="形状结合" fill="#000000" fill-rule="nonzero" xlink:href="#path-1"></use>
    </g>
</svg>