<?xml version="1.0" encoding="utf-8"?>
<!-- Generator: Adobe Illustrator 25.0.1, SVG Export Plug-In . SVG Version: 6.00 Build 0)  -->
<svg version="1.1" id="图层_1" xmlns="http://www.w3.org/2000/svg" xmlns:xlink="http://www.w3.org/1999/xlink" x="0px" y="0px"
     viewBox="0 0 24 24" style="enable-background:new 0 0 24 24;" xml:space="preserve">
<style type="text/css">
    .st0{opacity:0.4;}
    .st1{fill-rule:evenodd;clip-rule:evenodd;}
</style>
<g id="ic_ohos_window_close" class="st0">
    <path id="Shape" class="st1" d="M8.8,16.2c-0.3,0.3-0.8,0.3-1.1,0c-0.3-0.3-0.3-0.8,0-1.1l3.2-3.2L7.8,8.8c-0.3-0.3-0.3-0.8,0-1.1
        s0.8-0.3,1.1,0l3.2,3.2l3.2-3.2c0.3-0.3,0.8-0.3,1.1,0c0.3,0.3,0.3,0.8,0,1.1L8.8,16.2z M13.6,12.5l2.7,2.7c0.3,0.3,0.3,0.8,0,1.1
        c-0.3,0.3-0.8,0.3-1.1,0l-2.7-2.7L13.6,12.5z"/>
</g>
</svg>
