<?xml version="1.0" encoding="utf-8"?>
<!-- Generator: Adobe Illustrator 25.0.1, SVG Export Plug-In . SVG Version: 6.00 Build 0)  -->
<svg version="1.1" id="图层_1" xmlns="http://www.w3.org/2000/svg" xmlns:xlink="http://www.w3.org/1999/xlink" x="0px" y="0px"
     viewBox="0 0 24 24" style="enable-background:new 0 0 24 24;" xml:space="preserve">
<style type="text/css">
    .st0{opacity:0.4;}
</style>
<g id="ic_ohos_window_full" class="st0">
    <path id="Path" d="M16.2,11.5c-0.4,0-0.7,0.3-0.7,0.6l0,0.1v3.2h-3.2c-0.4,0-0.7,0.3-0.7,0.6l0,0.1c0,0.4,0.3,0.7,0.6,0.7l0.1,0h4
        c0.4,0,0.7-0.3,0.7-0.6l0-0.1v-4C17,11.8,16.7,11.5,16.2,11.5z"/>
    <path id="Path_1_" d="M7.8,12.5c0.4,0,0.7-0.3,0.7-0.6l0-0.1V8.5h3.2c0.4,0,0.7-0.3,0.7-0.6l0-0.1c0-0.4-0.3-0.7-0.6-0.7l-0.1,0h-4
        C7.4,7,7.1,7.3,7,7.6l0,0.1v4C7,12.2,7.3,12.5,7.8,12.5z"/>
</g>
</svg>
