<?xml version="1.0" encoding="utf-8"?>
<!-- Generator: Adobe Illustrator 25.0.1, SVG Export Plug-In . SVG Version: 6.00 Build 0)  -->
<svg version="1.1" id="图层_1" xmlns="http://www.w3.org/2000/svg" xmlns:xlink="http://www.w3.org/1999/xlink" x="0px" y="0px"
     viewBox="0 0 24 24" style="enable-background:new 0 0 24 24;" xml:space="preserve">
<style type="text/css">
    .st0{opacity:0.4;}
</style>
<g id="ic_ohos_window_split_left" class="st0">
    <path id="Path" d="M12,17H9c-1,0-1.4-0.1-1.8-0.3c-0.4-0.2-0.7-0.5-0.9-0.9C6.1,15.5,6,15.1,6,14.2L6,10c0-1,0.1-1.4,0.3-1.8
        c0.2-0.4,0.5-0.7,0.9-0.9C7.5,7.1,7.9,7,8.8,7L12,7V17z"/>
    <path id="Path_1_" d="M12.8,7H15c1,0,1.4,0.1,1.8,0.3c0.4,0.2,0.7,0.5,0.9,0.9C17.9,8.6,18,9,18,10v4c0,1-0.1,1.4-0.3,1.8
        s-0.5,0.7-0.9,0.9S16,17,15,17h-2.3v-1.5l2.4,0l0.3,0c0.1,0,0.2,0,0.2,0l0.2,0c0,0,0.1,0,0.1,0l0.1,0l0,0c0.1-0.1,0.2-0.1,0.3-0.3
        l0,0l0-0.1c0,0,0-0.1,0-0.1l0-0.2l0-0.1l0-0.2l0-0.3l0-4.2l0-0.3c0-0.1,0-0.2,0-0.2l0-0.2c0,0,0-0.1,0-0.1l0-0.1l0,0
        c-0.1-0.1-0.1-0.2-0.3-0.3l0,0l-0.1,0c0,0-0.1,0-0.1,0l-0.2,0l-0.1,0l-0.4,0l-2.4,0V7z"/>
</g>
</svg>
