<?xml version="1.0" encoding="UTF-8"?>
<svg viewBox="0 0 24 24" version="1.1" xmlns="http://www.w3.org/2000/svg" xmlns:xlink="http://www.w3.org/1999/xlink">
    <title>ic_ohos_window_split_left</title>
    <g id="ic_ohos_window_split_left" stroke="none" stroke-width="1" fill="none" fill-rule="evenodd">
        <path d="M12,17 L8.9911994,17 C7.9510942,17 7.57392693,16.8917035 7.19368001,16.6883452 C6.8134331,16.4849869 6.5150131,16.1865669 6.31165482,15.80632 C6.12282214,15.4532336 6.01595594,15.1028025 6.00165278,14.221776 L6,9.9911994 C6,8.9510942 6.10829655,8.57392693 6.31165482,8.19368001 C6.5150131,7.8134331 6.8134331,7.5150131 7.19368001,7.31165482 C7.54676643,7.12282214 7.89719745,7.01595594 8.77822401,7.00165278 L12,7 L12,17 Z" id="Path" fill="#000000" fill-rule="nonzero"></path>
        <path d="M12.75,7 L15.0088006,7 C16.0489058,7 16.4260731,7.10829655 16.80632,7.31165482 C17.1865669,7.5150131 17.4849869,7.8134331 17.6883452,8.19368001 C17.8917035,8.57392693 18,8.9510942 18,9.9911994 L18,14.0088006 C18,15.0489058 17.8917035,15.4260731 17.6883452,15.80632 C17.4849869,16.1865669 17.1865669,16.4849869 16.80632,16.6883452 C16.4260731,16.8917035 16.0489058,17 15.0088006,17 L12.75,17 L12.75,15.499 L15.1783507,15.4992468 L15.4576249,15.4929265 C15.5386731,15.4896846 15.6085124,15.485264 15.6696459,15.4795336 L15.8294316,15.4582829 C15.8756563,15.4498024 15.9156781,15.4398815 15.952,15.4283892 L16.0523689,15.3890673 L16.0989217,15.3656254 C16.2177659,15.3020668 16.3020668,15.2177659 16.3656254,15.0989217 L16.3890673,15.0523689 L16.4283892,14.952 C16.4398815,14.9156781 16.4498024,14.8756563 16.4582829,14.8294316 L16.4795336,14.6696459 L16.4871633,14.5711034 L16.4969217,14.3273331 L16.5,14.0088006 L16.4992468,9.82164928 L16.4929265,9.54237511 C16.4896846,9.46132691 16.485264,9.39148758 16.4795336,9.33035412 L16.4582829,9.17056838 C16.4498024,9.12434369 16.4398815,9.08432189 16.4283892,9.048 L16.3890673,8.94763107 L16.3656254,8.9010783 C16.3020668,8.7822341 16.2177659,8.69793319 16.0989217,8.63437462 L16.0523689,8.61093274 L15.952,8.57161084 C15.9156781,8.56011852 15.8756563,8.55019756 15.8294316,8.5417171 L15.6696459,8.52046636 L15.5711034,8.51283675 L15.1783507,8.50075322 L12.75,8.5 L12.75,7 Z" id="Path" fill="#000000" fill-rule="nonzero"></path>
    </g>
</svg>