<?xml version="1.0" encoding="UTF-8"?>
<svg viewBox="0 0 24 24" version="1.1" xmlns="http://www.w3.org/2000/svg" xmlns:xlink="http://www.w3.org/1999/xlink">
    <title>ic_ohos_window_exitfull</title>
    <g id="ic_ohos_window_exitfull" stroke="none" stroke-width="1" fill="none" fill-rule="evenodd">
        <path d="M13.25,12.5 C13.6296958,12.5 13.943491,12.7821539 13.9931534,13.1482294 L14,13.25 L14,16.5 L17.25,16.5 C17.6296958,16.5 17.943491,16.7821539 17.9931534,17.1482294 L18,17.25 C18,17.6296958 17.7178461,17.943491 17.3517706,17.9931534 L17.25,18 L13.25,18 C12.8703042,18 12.556509,17.7178461 12.5068466,17.3517706 L12.5,17.25 L12.5,13.25 C12.5,12.8357864 12.8357864,12.5 13.25,12.5 Z" id="Path" fill="#000000" fill-rule="nonzero" transform="translate(15.250000, 15.250000) scale(1, -1) translate(-15.250000, -15.250000) "></path>
        <path d="M6.75,6 C7.12969577,6 7.44349096,6.28215388 7.49315338,6.64822944 L7.5,6.75 L7.5,10 L10.75,10 C11.1296958,10 11.443491,10.2821539 11.4931534,10.6482294 L11.5,10.75 C11.5,11.1296958 11.2178461,11.443491 10.8517706,11.4931534 L10.75,11.5 L6.75,11.5 C6.37030423,11.5 6.05650904,11.2178461 6.00684662,10.8517706 L6,10.75 L6,6.75 C6,6.33578644 6.33578644,6 6.75,6 Z" id="Path" fill="#000000" fill-rule="nonzero" transform="translate(8.750000, 8.750000) scale(-1, 1) translate(-8.750000, -8.750000) "></path>
    </g>
</svg>