<?xml version="1.0" encoding="utf-8"?>
<!-- Generator: Adobe Illustrator 25.0.1, SVG Export Plug-In . SVG Version: 6.00 Build 0)  -->
<svg version="1.1" id="图层_1" xmlns="http://www.w3.org/2000/svg" xmlns:xlink="http://www.w3.org/1999/xlink" x="0px" y="0px"
     viewBox="0 0 24 24" style="enable-background:new 0 0 24 24;" xml:space="preserve">
<style type="text/css">
    .st0{opacity:0.4;}
</style>
<g id="ic_ohos_window_exitfull" class="st0">
    <path id="Path" d="M13.2,18c0.4,0,0.7-0.3,0.7-0.6l0-0.1V14h3.2c0.4,0,0.7-0.3,0.7-0.6l0-0.1c0-0.4-0.3-0.7-0.6-0.7l-0.1,0h-4
        c-0.4,0-0.7,0.3-0.7,0.6l0,0.1v4C12.5,17.7,12.8,18,13.2,18z"/>
    <path id="Path_1_" d="M10.8,6c-0.4,0-0.7,0.3-0.7,0.6l0,0.1V10H6.8c-0.4,0-0.7,0.3-0.7,0.6l0,0.1c0,0.4,0.3,0.7,0.6,0.7l0.1,0h4
        c0.4,0,0.7-0.3,0.7-0.6l0-0.1v-4C11.5,6.3,11.2,6,10.8,6z"/>
</g>
</svg>
