<?xml version="1.0" encoding="UTF-8"?>
<svg viewBox="0 0 24 24" version="1.1" xmlns="http://www.w3.org/2000/svg" xmlns:xlink="http://www.w3.org/1999/xlink">
    <title>ic_ohos_window_full</title>
    <g id="ic_ohos_window_full" stroke="none" stroke-width="1" fill="none" fill-rule="evenodd">
        <path d="M12.25,11.5 C12.6296958,11.5 12.943491,11.7821539 12.9931534,12.1482294 L13,12.25 L13,15.5 L16.25,15.5 C16.6296958,15.5 16.943491,15.7821539 16.9931534,16.1482294 L17,16.25 C17,16.6296958 16.7178461,16.943491 16.3517706,16.9931534 L16.25,17 L12.25,17 C11.8703042,17 11.556509,16.7178461 11.5068466,16.3517706 L11.5,16.25 L11.5,12.25 C11.5,11.8357864 11.8357864,11.5 12.25,11.5 Z" id="Path" fill="#000000" fill-rule="nonzero" transform="translate(14.250000, 14.250000) scale(-1, 1) translate(-14.250000, -14.250000) "></path>
        <path d="M7.75,7 C8.12969577,7 8.44349096,7.28215388 8.49315338,7.64822944 L8.5,7.75 L8.5,11 L11.75,11 C12.1296958,11 12.443491,11.2821539 12.4931534,11.6482294 L12.5,11.75 C12.5,12.1296958 12.2178461,12.443491 11.8517706,12.4931534 L11.75,12.5 L7.75,12.5 C7.37030423,12.5 7.05650904,12.2178461 7.00684662,11.8517706 L7,11.75 L7,7.75 C7,7.33578644 7.33578644,7 7.75,7 Z" id="Path" fill="#000000" fill-rule="nonzero" transform="translate(9.750000, 9.750000) scale(1, -1) translate(-9.750000, -9.750000) "></path>
    </g>
</svg>