<?xml version="1.0" encoding="UTF-8"?>
<svg viewBox="0 0 24 24" version="1.1" xmlns="http://www.w3.org/2000/svg" xmlns:xlink="http://www.w3.org/1999/xlink">
    <title>画板备份</title>
    <defs>
        <path opacity="1.0" d="M3.31079777,10.7499686 L9.28033009,16.7196699 L9.31407138,16.7556673 C9.57275468,17.0502619 9.56150758,17.4991526 9.28033009,17.7803301 C8.9991526,18.0615076 8.55026186,18.0727547 8.25566731,17.8140714 L8.21966991,17.7803301 L1.18929777,10.7499686 L3.31079777,10.7499686 Z M9.28033009,0.219669914 C9.56150758,0.500847404 9.57275468,0.949738137 9.31407138,1.24433269 L9.28033009,1.28033009 L2.3105,8.25 L19,8.25 C19.3994202,8.25 19.7259152,8.56222999 19.7487268,8.9559318 L19.75,9 C19.75,9.39942022 19.43777,9.72591522 19.0440682,9.74872683 L19,9.75 L1.10355339,9.75 C0.838336901,9.75 0.583982988,9.64464316 0.396446609,9.45710678 C0.018939794,9.07959997 0.00635623354,8.47535891 0.358695928,8.08273648 L0.396446609,8.04289322 L8.21966991,0.219669914 C8.51256313,-0.0732233047 8.98743687,-0.0732233047 9.28033009,0.219669914 Z" id="path-1"></path>
    </defs>
    <g id="画板备份" stroke="none" stroke-width="1" fill="none" fill-rule="evenodd">
        <g id="Public/ic_back" transform="translate(2.000000, 3.000000)">
            <g id="编组-2">
                <mask id="mask-2" fill="white">
                    <use xlink:href="#path-1"></use>
                </mask>
				<use id="形状结合" fill="#000000" xlink:href="#path-1"></use>
            </g>
        </g>
    </g>
</svg>