<?xml version="1.0" encoding="UTF-8"?>
<svg viewBox="0 0 28 28" version="1.1" xmlns="http://www.w3.org/2000/svg" xmlns:xlink="http://www.w3.org/1999/xlink">
    <!-- Generator: Sketch 64 (93537) - https://sketch.com -->
    <title>Ranking/star_enabled@1x</title>
    <desc>Created with Sketch.</desc>
    <g id="Ranking/star_enabled" stroke="none" stroke-width="1" fill="none" fill-rule="evenodd" fill-opacity="1">
        <path d="M14.9381029,4.14569719 L17.2550423,10.4357403 L17.2550423,10.4357403 L23.5431449,10.4357403 C24.0954297,10.4357403 24.5431449,10.8834556 24.5431449,11.4357403 C24.5431449,11.7496567 24.3957374,12.0453546 24.1450551,12.2343041 L19.02815,16.0911247 L19.02815,16.0911247 L20.9542146,22.1918855 C21.1204863,22.7185468 20.8283328,23.28028 20.3016714,23.4465517 C20.0056866,23.5399968 19.6830902,23.4907046 19.4285159,23.3131351 L14.0203177,19.5408321 L14.0203177,19.5408321 L8.85135237,23.3898732 C8.40838845,23.7197238 7.78189851,23.6280273 7.45204791,23.1850634 C7.26445802,22.9331446 7.20612765,22.607727 7.29453801,22.3063358 L9.11276587,16.1079912 L9.11276587,16.1079912 L3.86393395,12.240825 C3.41929795,11.9132319 3.32441595,11.2872165 3.65200909,10.8425805 C3.84049047,10.5867582 4.13933564,10.4357403 4.4570938,10.4357403 L10.7474867,10.4357403 L10.7474867,10.4357403 L13.061226,4.14609828 C13.2519,3.62777225 13.8266581,3.36215781 14.3449841,3.55283182 C14.6200076,3.65400335 14.8368138,3.87071694 14.9381029,4.14569719 Z"
              id="Stroke-161-Copy-2" fill="#000000" opacity="0.1" fill-rule="nonzero"></path>
    </g>
</svg>