<?xml version="1.0" encoding="UTF-8"?>
<svg viewBox="0 0 24 24" version="1.1" xmlns="http://www.w3.org/2000/svg" xmlns:xlink="http://www.w3.org/1999/xlink">
    <!-- Generator: Sketch 64 (93537) - https://sketch.com -->
    <title>Ranking/star_enabled</title>
    <desc>Created with Sketch.</desc>
    <g id="Ranking/star_enabled" stroke="none" stroke-width="1" fill="none" fill-rule="evenodd" fill-opacity="1">
        <path d="M12.9381029,2.14569719 L15.2550423,8.43574032 L15.2550423,8.43574032 L21.5431449,8.43574032 C22.0954297,8.43574032 22.5431449,8.88345557 22.5431449,9.43574032 C22.5431449,9.74965672 22.3957374,10.0453546 22.1450551,10.2343041 L17.02815,14.0911247 L17.02815,14.0911247 L18.9542146,20.1918855 C19.1204863,20.7185468 18.8283328,21.28028 18.3016714,21.4465517 C18.0056866,21.5399968 17.6830902,21.4907046 17.4285159,21.3131351 L12.0203177,17.5408321 L12.0203177,17.5408321 L6.85135237,21.3898732 C6.40838845,21.7197238 5.78189851,21.6280273 5.45204791,21.1850634 C5.26445802,20.9331446 5.20612765,20.607727 5.29453801,20.3063358 L7.11276587,14.1079912 L7.11276587,14.1079912 L1.86393395,10.240825 C1.41929795,9.91323189 1.32441595,9.28721648 1.65200909,8.84258047 C1.84049047,8.58675823 2.13933564,8.43574032 2.4570938,8.43574032 L8.74748673,8.43574032 L8.74748673,8.43574032 L11.061226,2.14609828 C11.2519,1.62777225 11.8266581,1.36215781 12.3449841,1.55283182 C12.6200076,1.65400335 12.8368138,1.87071694 12.9381029,2.14569719 Z"
              id="Stroke-161-Copy-2" fill="#000000" opacity="0.1" fill-rule="nonzero"></path>
    </g>
</svg>