<?xml version="1.0" encoding="UTF-8"?>
<svg viewBox="0 0 24 24" version="1.1" xmlns="http://www.w3.org/2000/svg" xmlns:xlink="http://www.w3.org/1999/xlink">
    <title>ic_search</title>
    <defs>
        <path opacity=".6" d="M17.9584826,16.1395687 L21.4962794,19.6297234 C21.8894935,20.0175393 21.8938696,20.6506891 21.506071,21.0439205 C21.1299899,21.4252017 20.5232355,21.4408711 20.1282682,21.0878532 L20.091874,21.0536776 L16.5887451,17.5992467 C17.0974082,17.165212 17.5571303,16.6755097 17.9584826,16.1395687 Z M10.75,2.75 C15.168278,2.75 18.75,6.331722 18.75,10.75 C18.75,12.4172747 18.2399648,13.9654243 17.3674077,15.2469356 L17.2388141,15.430245 C16.8463648,15.9733961 16.3873946,16.4653125 15.8738479,16.8940499 L15.8051198,16.9507846 C14.4271889,18.0754785 12.6673659,18.75 10.75,18.75 C6.331722,18.75 2.75,15.168278 2.75,10.75 C2.75,6.331722 6.331722,2.75 10.75,2.75 Z M10.75,4.75 C7.4362915,4.75 4.75,7.4362915 4.75,10.75 C4.75,14.0637085 7.4362915,16.75 10.75,16.75 C14.0637085,16.75 16.75,14.0637085 16.75,10.75 C16.75,7.4362915 14.0637085,4.75 10.75,4.75 Z" id="path-1"></path>
    </defs>
    <g id="ic_search" stroke="none" stroke-width="1" fill="none" fill-rule="evenodd">
        <mask id="mask-2" fill="white">
            <use xlink:href="#path-1"></use>
        </mask>
        <use id="形状结合" fill="#000000" fill-rule="nonzero" xlink:href="#path-1"></use>
    </g>
</svg>