<?xml version="1.0" encoding="UTF-8"?>
<svg viewBox="0 0 24 24" version="1.1" xmlns="http://www.w3.org/2000/svg" xmlns:xlink="http://www.w3.org/1999/xlink">
    <title>ic_translate_c2e</title>
    <defs>
        <path opacity="1.0" d="M10.0132009,8.5 C11.5733587,8.5 12.1391096,8.66244482 12.70948,8.96748223 C13.2798504,9.27251964 13.7274804,9.72014965 14.0325178,10.29052 C14.3375552,10.8608904 14.5,11.4266413 14.5,12.9867991 L14.5,17.5132009 C14.5,19.0733587 14.3375552,19.6391096 14.0325178,20.20948 C13.7274804,20.7798504 13.2798504,21.2274804 12.70948,21.5325178 C12.1391096,21.8375552 11.5733587,22 10.0132009,22 L5.4867991,22 C3.92664131,22 3.36089039,21.8375552 2.79052002,21.5325178 C2.22014965,21.2274804 1.77251964,20.7798504 1.46748223,20.20948 C1.16244482,19.6391096 1,19.0733587 1,17.5132009 L1,12.9867991 C1,11.4266413 1.16244482,10.8608904 1.46748223,10.29052 C1.77251964,9.72014965 2.22014965,9.27251964 2.79052002,8.96748223 C3.36089039,8.66244482 3.92664131,8.5 5.4867991,8.5 L10.0132009,8.5 Z M7.88967796,11.3137215 L6.84410607,11.6251684 L6.90585884,11.7566421 L7.03544783,12.0364484 L7.16186228,12.3173106 L7.28510227,12.5992287 L7.3315,12.709 L3.936,12.709 L3.936,13.7155 L5.26525,13.7155 L5.28293841,13.782391 C5.42380688,14.2951806 5.60869414,14.7815394 5.83759614,15.2413526 L6.01752535,15.5812334 L6.09099586,15.7099973 L6.17670011,15.852018 C6.329507,16.0979221 6.49713894,16.3300001 6.67954306,16.5481496 L6.8668693,16.7616525 L6.96275,16.8635 L6.94124816,16.8791544 C6.56647282,17.1401871 6.17656081,17.3571125 5.77142935,17.5300345 C5.34385559,17.7380176 4.90944958,17.9245777 4.46582164,18.0908027 L4.01903121,18.2502897 L3.65680969,18.370136 L4.16739217,19.4238914 L4.27298423,19.3862384 L4.51735389,19.2968473 C5.00356528,19.1144634 5.47460816,18.9104696 5.93046639,18.6848659 L6.38126248,18.4520589 L6.55190832,18.3606842 L6.72010255,18.266063 C6.94272166,18.13774 7.15877024,18.0007767 7.36811663,17.8552419 L7.67709312,17.6305195 L7.75,17.57375 L7.8229088,17.6305205 C8.22814672,17.9387072 8.66057965,18.21281 9.12013718,18.4528011 C9.57499566,18.6746313 10.0379185,18.8808514 10.5101991,19.0721168 L10.985647,19.2584216 L11.3700585,19.4012698 L11.8402948,18.3295684 L11.7032332,18.2899225 L11.4777973,18.2223958 C11.0285909,18.083188 10.5893756,17.919054 10.1601292,17.7299859 L9.73420495,17.5326062 L9.58131675,17.4649321 L9.43022539,17.3933007 C9.22994709,17.2951442 9.03433411,17.1863754 8.84288144,17.0667557 L8.55875957,16.8791579 L8.537,16.8635 L8.63247949,16.7625339 L8.73844513,16.6444712 C8.94681091,16.4059526 9.13378105,16.153078 9.29930914,15.8858957 L9.45768817,15.6139459 L9.54121132,15.4411869 L9.62133334,15.2668263 C9.7781855,14.9164859 9.91471421,14.556379 10.0314193,14.1855672 L10.141535,13.8111524 L10.16675,13.7155 L11.564,13.7155 L11.564,12.709 L8.52425,12.709 L8.4908034,12.6420983 L8.37396345,12.4040279 L8.20375376,12.0405572 L8.20375376,12.0405572 L8.03960491,11.6694477 L7.88967796,11.3137215 Z M9.052,13.7155 L9.01031658,13.8692032 C8.91223845,14.2124729 8.78691755,14.5473776 8.63432506,14.873972 L8.47264095,15.1977984 L8.4127627,15.3015668 C8.27427241,15.5334937 8.11038184,15.7549224 7.92126011,15.9654019 L7.72373425,16.172215 L7.7195,16.17575 L7.69958327,16.154888 C7.49153884,15.9308358 7.30191363,15.6882547 7.13068096,15.427077 L6.96557815,15.1596978 L6.88171631,15.0072216 C6.73834521,14.7385258 6.61276441,14.4600642 6.50509922,14.1720356 L6.40341055,13.8808254 L6.35175,13.7155 L9.052,13.7155 Z M18.5132009,2 C20.0733587,2 20.6391096,2.16244482 21.20948,2.46748223 C21.7798504,2.77251964 22.2274804,3.22014965 22.5325178,3.79052002 L22.6342249,3.99326214 C22.8735291,4.50777167 23,5.11018928 23,6.4867991 L23,11.0132009 C23,12.5733587 22.8375552,13.1391096 22.5325178,13.70948 C22.2274804,14.2798504 21.7798504,14.7274804 21.20948,15.0325178 L21.0067379,15.1342249 C20.4922283,15.3735291 19.8898107,15.5 18.5132009,15.5 L15.499,15.5 L15.5,13.999 L18.5132009,14 L18.9506279,13.9958158 C19.8138066,13.9773591 20.1543816,13.89575 20.5020817,13.709798 C20.8110494,13.5445603 21.0445603,13.3110494 21.209798,13.0020817 L21.288363,12.8401817 C21.4312751,12.509678 21.4906792,12.1158043 21.4989727,11.2419147 L21.5,11.0132009 L21.5,6.4867991 L21.4958158,6.04937207 C21.4773591,5.1861934 21.39575,4.84561838 21.209798,4.49791831 C21.0445603,4.18895065 20.8110494,3.95543974 20.5020817,3.79020203 L20.3401817,3.71163699 C20.009678,3.56872488 19.6158043,3.50932077 18.7419147,3.50102731 L13.9867991,3.5 C12.7908171,3.5 12.3991107,3.57564199 11.9979183,3.79020203 C11.6889506,3.95543974 11.4554397,4.18895065 11.290202,4.49791831 L11.211637,4.65981826 C11.0687249,4.99032199 11.0093208,5.38419566 11.0010273,6.25808525 L11.0028128,7.52678484 C10.7875148,7.51324937 10.5543693,7.50514974 10.2991344,7.5018012 L9.5,7.501 L9.5,6.4867991 C9.5,4.92664131 9.66244482,4.36089039 9.96748223,3.79052002 C10.2725196,3.22014965 10.7201496,2.77251964 11.29052,2.46748223 L11.4932621,2.36577509 C12.0077717,2.12647088 12.6101893,2 13.9867991,2 L18.5132009,2 Z M16.9804631,4.6 L20.5,12.6 L19.052822,12.6 L18.1497829,10.4666667 L15.2000088,10.4662958 C15.1226755,10.2427799 15.0282464,10.0319245 14.914331,9.81892116 C14.7031985,9.42413777 14.4380601,9.07271421 14.12456,8.7702947 L15.8921852,4.6 L16.9804631,4.6 Z M16.3900145,6.22176871 L15.1164978,9.36734694 L17.6982634,9.36734694 L16.3900145,6.22176871 Z" id="path-1"></path>
    </defs>
    <g id="ic_translate_c2e" stroke="none" stroke-width="1" fill="none" fill-rule="evenodd">
        <mask id="mask-2" fill="white">
            <use xlink:href="#path-1"></use>
        </mask>
        <use id="形状结合" fill="#000000" fill-rule="nonzero" xlink:href="#path-1"></use>
    </g>
</svg>