<?xml version="1.0" encoding="UTF-8"?>
<svg viewBox="0 0 24 24" version="1.1" xmlns="http://www.w3.org/2000/svg" xmlns:xlink="http://www.w3.org/1999/xlink">
    <!-- Generator: Sketch 64 (93537) - https://sketch.com -->
    <title>star_unmarked</title>
    <desc>Created with Sketch.</desc>
    <g id="star_unmarked" stroke="none" stroke-width="1" fill="none" fill-rule="evenodd">
        <g id="symbol/frame/symbol_grid24" transform="translate(2.000000, 2.000000)"></g>
        <path d="M12.7817524,3.78808099 L14.7125352,9.0297836 L14.7125352,9.0297836 L19.9526208,9.0297836 C20.4128581,9.0297836 20.7859541,9.40287964 20.7859541,9.86311693 C20.7859541,10.1247139 20.6631145,10.3711289 20.4542126,10.5285868 L16.190125,13.7426039 L16.190125,13.7426039 L17.7951789,18.8265712 C17.9337386,19.2654557 17.6902773,19.7335667 17.2513929,19.8721264 C17.0047388,19.9499973 16.7359085,19.9089205 16.5237632,19.7609459 L12.0169314,16.6173601 L12.0169314,16.6173601 L7.70946031,19.8248943 C7.34032371,20.0997698 6.81824876,20.0233561 6.54337326,19.6542195 C6.38704835,19.4442872 6.33843971,19.1731058 6.41211501,18.9219465 L7.92730489,13.7566593 L7.92730489,13.7566593 L3.5532783,10.5340209 C3.18274829,10.2610266 3.10367996,9.73934706 3.37667424,9.36881706 C3.53374206,9.15563186 3.7827797,9.0297836 4.04757817,9.0297836 L9.28957227,9.0297836 L9.28957227,9.0297836 L11.2176883,3.78841523 C11.3765833,3.35647688 11.8555484,3.13513151 12.2874867,3.29402652 C12.516673,3.37833612 12.6973449,3.55893079 12.7817524,3.78808099 Z"
              id="Stroke-161-Copy-2" opacity="0.2" fill="#F1F3F5" fill-rule="nonzero"></path>
    </g>
</svg>