<?xml version="1.0" encoding="UTF-8"?>
<svg viewBox="0 0 144 128" version="1.1" xmlns="http://www.w3.org/2000/svg" xmlns:xlink="http://www.w3.org/1999/xlink">
    <!-- Generator: Sketch 63.1 (92452) - https://sketch.com -->
    <title>star_default</title>
    <desc>Created with Sketch.</desc>
    <defs>
        <path d="M75.1270096,31.152324 L82.8501409,52.1191344 L82.8501409,52.1191344 L103.810483,52.1191344 C105.651432,52.1191344 107.143816,53.6115186 107.143816,55.4524677 C107.143816,56.4988557 106.652458,57.4845155 105.81685,58.114347 L88.7604999,70.9704156 L88.7604999,70.9704156 L95.1807154,91.3062849 C95.7349544,93.0618227 94.7611092,94.9342668 93.0055714,95.4885057 C92.0189553,95.7999892 90.9436339,95.635682 90.095053,95.0437835 L72.0677258,82.4694404 L72.0677258,82.4694404 L54.8378412,95.2995772 C53.3612948,96.3990792 51.272995,96.0934243 50.173493,94.6168779 C49.5481934,93.7771487 49.3537588,92.6924233 49.64846,91.6877861 L55.7092196,71.0266373 L55.7092196,71.0266373 L38.2131132,58.1360834 C36.7309932,57.0441063 36.4147198,54.9573883 37.506697,53.4752682 C38.1349682,52.6225274 39.1311188,52.1191344 40.1903127,52.1191344 L61.1582891,52.1191344 L61.1582891,52.1191344 L68.8707532,31.1536609 C69.5063332,29.4259075 71.4221935,28.540526 73.1499469,29.1761061 C74.066692,29.5133445 74.7893794,30.2357231 75.1270096,31.152324 Z" id="path-1"></path>
    </defs>
    <g id="star_default" stroke="none" stroke-width="1" fill="none" fill-rule="evenodd">
        <mask id="mask-2" fill="white">
            <use xlink:href="#path-1"></use>
        </mask>
        <use id="star" opacity="0.2" fill="#F1F3F5" fill-rule="nonzero" xlink:href="#path-1"></use>
    </g>
</svg>