<?xml version="1.0" encoding="UTF-8"?>
<svg viewBox="0 0 92 92" version="1.1" xmlns="http://www.w3.org/2000/svg" xmlns:xlink="http://www.w3.org/1999/xlink">
    <title>ic/56x56/Arrow/Right</title>
    <defs>
        <path d="M24.1174873,12.4723401 L24.1975585,12.5479145 L36.5592981,24.9096541 C38.2305398,26.5808958 38.2653573,29.2688812 36.6637507,30.9824873 L36.5592981,31.0905239 L24.1975585,43.4522635 C23.8757048,43.7741172 23.4658624,43.9543553 23.0454613,43.9929777 L22.9306029,44 L22.8155699,44 C22.3555544,43.9859555 21.8997275,43.8033766 21.5486143,43.4522635 C20.8432531,42.7469022 20.8180616,41.6189377 21.4730399,40.8833905 L21.5486143,40.8033193 L33.0273725,29.3245611 C33.7327337,28.6191999 33.7579252,27.4912353 33.1029469,26.7556881 L33.0273725,26.6756169 L21.5486143,15.1968587 C20.8171286,14.465373 20.8171286,13.2794003 21.5486143,12.5479145 C21.9012949,12.1952339 22.3596264,12.0125957 22.8217311,12 L22.9372769,12.0003936 C23.3608008,12.0148262 23.7803615,12.1721417 24.1174873,12.4723401 Z" id="path-1"></path>
    </defs>
    <g id="ic/56x56/Arrow/Right" stroke="none" stroke-width="1" fill="none" fill-rule="evenodd">
        <g id="UpArrayGroup" transform="translate(18.000000, 18.000000)">
            <mask id="mask-2" fill="white">
                <use xlink:href="#path-1"></use>
            </mask>
            <use id="UpArrayPath" fill="#FFFFFF" fill-rule="nonzero" opacity="0.66" xlink:href="#path-1"></use>
        </g>
        <rect id="UpArrapRect" fill-opacity="0" fill="#FFFFFF" x="0" y="0" width="92" height="92"></rect>
    </g>
</svg>
