<?xml version="1.0" encoding="UTF-8"?>
<svg viewBox="0 0 92 92" version="1.1" xmlns="http://www.w3.org/2000/svg" xmlns:xlink="http://www.w3.org/1999/xlink">
    <title>ic/56x56/Arrow/Down</title>
    <defs>
        <path d="M22.6977883,12.4723401 L22.7778594,12.5479145 L35.139599,24.9096541 C36.8108407,26.5808958 36.8456583,29.2688812 35.2440516,30.9824873 L35.139599,31.0905239 L22.7778594,43.4522635 C22.4560057,43.7741172 22.0461633,43.9543553 21.6257623,43.9929777 L21.5109038,44 L21.3958709,44 C20.9358554,43.9859555 20.4800284,43.8033766 20.1289152,43.4522635 C19.423554,42.7469022 19.3983625,41.6189377 20.0533408,40.8833905 L20.1289152,40.8033193 L31.6076734,29.3245611 C32.3130347,28.6191999 32.3382261,27.4912353 31.6832478,26.7556881 L31.6076734,26.6756169 L20.1289152,15.1968587 C19.3974295,14.465373 19.3974295,13.2794003 20.1289152,12.5479145 C20.4815959,12.1952339 20.9399273,12.0125957 21.402032,12 L21.5175779,12.0003936 C21.9411018,12.0148262 22.3606625,12.1721417 22.6977883,12.4723401 Z" id="path-1"></path>
    </defs>
    <g id="ic/56x56/Arrow/Down" stroke="none" stroke-width="1" fill="none" fill-rule="evenodd">
        <g id="DownArrayGroup" transform="translate(18.000000, 18.000000)">
            <mask id="mask-2" fill="white">
                <use xlink:href="#path-1"></use>
            </mask>
            <use id="DownArrayPath" fill="#FFFFFF" fill-rule="nonzero" opacity="0.66" transform="translate(28.000000, 28.000000) scale(1, -1) rotate(-90.000000) translate(-28.000000, -28.000000) " xlink:href="#path-1"></use>
        </g>
        <rect id="DownArrayRect" fill-opacity="0" fill="#FFFFFF" x="0" y="0" width="92" height="92"></rect>
    </g>
</svg>
